<?xml version="1.0" encoding="UTF-8"?>
<!DOCTYPE svg PUBLIC "-//W3C//DTD SVG 1.1//EN" "http://www.w3.org/Graphics/SVG/1.1/DTD/svg11.dtd">
<!-- Creator: CorelDRAW -->
<svg xmlns="http://www.w3.org/2000/svg" xml:space="preserve" width="64px" height="64px" version="1.1" style="shape-rendering:geometricPrecision; text-rendering:geometricPrecision; image-rendering:optimizeQuality; fill-rule:evenodd; clip-rule:evenodd"
viewBox="0 0 53.51 53.51"
 xmlns:xlink="http://www.w3.org/1999/xlink"
 xmlns:xodm="http://www.corel.com/coreldraw/odm/2003">
 <defs>
  <style type="text/css">
   <![CDATA[
    .fil1 {fill:#4E8A3B}
    .fil0 {fill:#4E8A3B;fill-rule:nonzero}
    .fil2 {fill:#A7150B;fill-rule:nonzero}
    .fil3 {fill:#FCFBF8;fill-rule:nonzero}
   ]]>
  </style>
 </defs>
 <g id="Layer_x0020_1">
  <metadata id="CorelCorpID_0Corel-Layer"/>
  <path class="fil0" d="M0 0l53.51 0 0 53.51 -53.51 0 0 -53.51zm9.21 40.45c0.09,0.02 7.94,0.03 17.44,0.03l17.27 -0.01 0.26 -0.14c0.31,-0.16 0.55,-0.4 0.71,-0.72l0.13 -0.24 0 -12.9 -0.14 -0.26c-0.08,-0.15 -0.22,-0.34 -0.32,-0.43 -0.18,-0.18 -0.57,-0.38 -0.73,-0.38 -0.15,0 -0.11,-0.1 0.1,-0.25 0.11,-0.08 0.54,-0.42 0.96,-0.75 1.19,-0.96 1.21,-1.04 0.13,-0.49 -0.72,0.37 -2.26,1.23 -2.49,1.39 -0.13,0.08 -0.25,0.1 -1.11,0.1 -0.69,0 -0.98,-0.02 -0.98,-0.06 0,-0.04 0.2,-0.27 0.44,-0.52 0.24,-0.25 0.54,-0.62 0.67,-0.82 0.31,-0.46 0.8,-1.44 1.25,-2.48 0.57,-1.33 0.84,-1.65 2.24,-2.69 0.48,-0.36 1.23,-0.92 1.68,-1.25 0.44,-0.33 1.09,-0.8 1.43,-1.05 0.83,-0.59 2.21,-1.63 2.25,-1.69 0.02,-0.03 0.01,-0.05 -0.01,-0.05 -0.05,0 -0.78,0.39 -1.61,0.86 -0.35,0.19 -0.83,0.46 -1.07,0.59 -0.25,0.13 -0.66,0.36 -0.92,0.51 -0.25,0.15 -0.62,0.36 -0.81,0.46 -0.18,0.1 -0.48,0.26 -0.65,0.36l-0.32 0.18 -0.27 -0.58c-0.15,-0.31 -0.27,-0.58 -0.26,-0.58 0.01,0 0.31,-0.17 0.67,-0.37 1.34,-0.73 3.01,-1.95 2.75,-2 -0.28,-0.05 -2.14,0.79 -3.26,1.47l-0.47 0.29 -0.2 -0.43c-0.11,-0.23 -0.3,-0.64 -0.42,-0.92 -0.13,-0.27 -0.22,-0.52 -0.21,-0.55 0.01,-0.03 0.16,-0.15 0.33,-0.26 1.59,-1.03 2.79,-1.91 2.6,-1.91 -0.1,0 -1.03,0.43 -2.08,0.96 -0.83,0.41 -1.2,0.58 -1.24,0.53 -0.04,-0.05 -0.47,-0.95 -0.47,-0.99 0,-0.01 0.49,-0.31 1.09,-0.67 2.37,-1.41 4.83,-3.02 4.74,-3.11 -0.09,-0.09 -3.91,1.72 -5.72,2.7 -0.27,0.15 -0.5,0.26 -0.51,0.25 -0.03,-0.03 -0.75,-1.56 -0.75,-1.6 0,-0.03 0.1,-0.1 0.23,-0.16 0.22,-0.11 1.75,-1.04 2.52,-1.54 0.23,-0.15 0.67,-0.42 0.99,-0.61 1.15,-0.7 1.12,-0.8 -0.07,-0.27 -0.75,0.34 -1.13,0.51 -1.34,0.6 -0.38,0.16 -1.22,0.54 -1.57,0.7 -0.23,0.11 -0.86,0.4 -1.41,0.65 -1.55,0.72 -1.83,0.79 -4.23,1.15 -0.78,0.12 -1.75,0.27 -2.17,0.34 -0.42,0.07 -0.77,0.12 -0.78,0.11 -0.04,-0.05 0.09,-0.16 0.56,-0.43 0.66,-0.38 2.02,-1.19 2.81,-1.67 0.84,-0.51 0.89,-0.53 1.35,-0.8 0.64,-0.37 1.28,-0.79 1.28,-0.84 0,-0.06 -0.47,0.14 -1.46,0.61 -0.47,0.23 -1.01,0.49 -1.2,0.58 -0.61,0.29 -3.24,1.55 -4.71,2.27 -1.58,0.78 -1.74,0.84 -2.42,0.95 -0.84,0.14 -2.32,0.35 -2.49,0.35 -0.22,0 -0.15,-0.09 0.33,-0.38 0.57,-0.34 2.03,-1.31 2.43,-1.62 0.48,-0.37 0.64,-0.52 0.64,-0.6 0,-0.14 -0.4,0.03 -1.85,0.75 -1.12,0.56 -2.48,1.33 -4.37,2.46 -1.15,0.69 -1.65,0.95 -2.61,1.35 -0.52,0.2 -1.04,0.44 -1.17,0.51 -1.32,0.78 -0.83,2.63 0.77,2.91 0.19,0.03 0.36,0.08 0.37,0.1 0.03,0.04 -0.3,0.38 -0.72,0.74 -0.18,0.16 -1.47,1.7 -2.14,2.57 -0.56,0.73 -0.54,1.42 0.06,2.02 0.47,0.47 1.24,0.64 2.01,0.43 0.23,-0.07 0.48,-0.15 0.57,-0.2 0.15,-0.08 0.16,-0.08 0.12,0.02 -0.02,0.05 -0.11,0.39 -0.21,0.75 -0.09,0.36 -0.24,0.87 -0.32,1.13l-0.14 0.49 -0.56 -0.02 -0.55 -0.01 -0.01 -0.24c-0.02,-0.21 -0.05,-0.27 -0.39,-0.61 -0.46,-0.47 -0.57,-0.54 -0.53,-0.36 0.01,0.07 0.09,0.3 0.18,0.51 0.27,0.65 0.28,0.67 0.25,0.69 -0.01,0.01 -0.27,0.03 -0.57,0.05 -0.3,0.01 -0.48,0.01 -0.4,-0.01l0.14 -0.03 -0.23 -0.35c-0.22,-0.32 -0.29,-0.38 -0.85,-0.71 -0.99,-0.58 -2.11,-1.18 -2.14,-1.14 -0.06,0.05 0.37,0.61 1.25,1.62 0.25,0.29 0.45,0.54 0.45,0.57 0,0.02 -1.76,0.04 -3.93,0.04l-3.93 0 -0.26 0.12c-0.14,0.07 -0.36,0.23 -0.48,0.36 -0.06,0.06 -0.11,0.11 -0.15,0.16 -0.24,0.29 -0.24,0.78 -0.22,5.89 0,0.34 0,0.71 0,1.1l0.01 6.34 0.12 0.22c0.23,0.44 0.62,0.76 1.02,0.86zm34.37 -13.59l0 12.12 -34.07 0 0 -12.12 3.17 -0.01c2.8,-0.02 3.2,-0.01 3.36,0.07 0.5,0.22 2.14,1.1 2.14,1.15 0,0.02 -0.05,0.07 -0.12,0.09 -0.07,0.03 -0.16,0.1 -0.19,0.16 -0.05,0.11 -0.07,0.98 -0.02,1.12 0.08,0.2 0.29,0.24 1.22,0.24 0.88,0 0.9,0 1.02,-0.13 0.12,-0.12 0.13,-0.16 0.13,-0.65 0,-0.49 -0.01,-0.54 -0.13,-0.66 -0.12,-0.12 -0.16,-0.13 -0.69,-0.13 -0.57,0 -0.57,0 -0.72,-0.16 -0.09,-0.09 -0.42,-0.37 -0.75,-0.63l-0.59 -0.46 1.27 0 0.3 0.24c0.23,0.19 0.3,0.22 0.31,0.16 0.01,-0.05 -0.03,-0.16 -0.09,-0.24l-0.12 -0.16 1.53 0 0 0.4c0,0.22 0.02,0.49 0.06,0.61 0.07,0.22 0.45,0.66 0.57,0.66 0.06,0 0.07,0.11 0.05,0.46 -0.01,0.46 -0.01,0.47 0.13,0.58 0.13,0.1 0.2,0.11 1.04,0.11 0.84,0 0.91,-0.01 1.04,-0.11 0.14,-0.11 0.14,-0.12 0.13,-0.69l0 -0.58 0.27 -0.29c0.15,-0.16 0.39,-0.48 0.53,-0.72l0.27 -0.43 0.3 0c0.17,0 0.31,0.02 0.31,0.04 0,0.03 -0.08,0.22 -0.18,0.43 -0.1,0.22 -0.23,0.57 -0.29,0.78 -0.06,0.22 -0.23,0.71 -0.37,1.1 -0.15,0.39 -0.31,0.85 -0.37,1.03l-0.11 0.33 -0.64 0c-0.6,0 -0.64,0.01 -0.75,0.12 -0.06,0.07 -0.11,0.17 -0.11,0.23 0,0.07 -0.02,0.12 -0.03,0.12 -0.02,0 -0.42,-0.22 -0.88,-0.48 -1.18,-0.67 -1.61,-0.81 -1.98,-0.67 -0.22,0.08 -0.22,0.2 0.01,0.43 0.12,0.11 0.21,0.22 0.21,0.23 0,0.01 -0.1,0.02 -0.23,0.02 -0.17,0 -0.27,0.03 -0.34,0.1 -0.1,0.1 -0.11,0.17 -0.1,0.67 0.02,0.54 0.02,0.55 0.17,0.66 0.13,0.1 0.21,0.11 1.06,0.11l0.91 0 0.13 -0.15c0.12,-0.13 0.13,-0.19 0.12,-0.5l-0.02 -0.35 0.29 0.07c0.46,0.11 0.6,0.14 0.65,0.22 0.03,0.05 0.03,0.12 0.04,0.22 0.01,0.23 0.04,0.29 0.16,0.38 0.14,0.1 0.21,0.11 0.82,0.1l0.67 -0.01 0.27 0.17c0.46,0.32 0.8,0.41 1.31,0.38 0.5,-0.03 0.79,-0.12 1.17,-0.36 0.2,-0.13 0.32,-0.17 0.52,-0.17 0.76,-0.01 1.07,0 1.2,-0.15 0.09,-0.1 0.09,-0.28 0.09,-0.58 0,-0.02 0,-0.05 0,-0.07 0,-0.48 -0.02,-0.58 -0.1,-0.65 -0.05,-0.05 -0.15,-0.09 -0.21,-0.09 -0.1,0 -0.1,-0.02 0.1,-0.46 0.12,-0.25 0.23,-0.5 0.26,-0.56 0.24,-0.57 0.4,-0.87 0.56,-1.12 0.11,-0.16 0.27,-0.42 0.36,-0.58 0.09,-0.16 0.25,-0.44 0.35,-0.62 0.11,-0.18 0.19,-0.34 0.19,-0.36 0,-0.02 0.7,-0.03 1.55,-0.02l1.55 0.01 -0.04 0.17c-0.02,0.09 -0.05,0.48 -0.06,0.86 -0.03,0.61 -0.02,0.72 0.08,1.04 0.22,0.66 0.57,1.13 1.06,1.43 0.11,0.06 0.2,0.13 0.2,0.16 0,0.02 -0.32,0.05 -0.71,0.06 -0.67,0.01 -0.7,0.01 -0.76,-0.1 -0.03,-0.06 -0.1,-0.12 -0.16,-0.14 -0.11,-0.03 -0.66,0.08 -0.9,0.17 -0.08,0.04 -0.55,0.06 -1.15,0.06 -0.06,0 -0.12,0 -0.17,0 -0.59,0 -0.83,0 -0.94,0.12 -0.07,0.09 -0.07,0.24 -0.07,0.49 0,0.03 -0.01,0.07 -0.01,0.1 0,0.5 -0.01,0.53 -0.13,0.6 -0.18,0.1 -0.15,0.17 0.06,0.13 0.12,-0.02 0.22,-0.01 0.27,0.03 0.05,0.04 0.35,0.07 0.92,0.08 0.74,0.02 0.87,0.01 1.03,-0.07 0.17,-0.09 0.18,-0.11 0.2,-0.39 0.01,-0.3 0.02,-0.3 0.21,-0.36 0.1,-0.04 0.3,-0.12 0.44,-0.19 0.13,-0.07 0.27,-0.12 0.3,-0.12 0.03,0 0.05,0.15 0.04,0.38 -0.01,0.7 0.03,0.73 1.08,0.76 0.86,0.02 1.12,-0.03 1.23,-0.22 0.04,-0.08 0.06,-0.3 0.04,-0.68l-0.01 -0.56 0.19 -0.05c0.32,-0.09 0.62,-0.37 1.02,-0.94 0.2,-0.3 0.47,-0.68 0.6,-0.84l0.23 -0.3 0.02 0.44c0.03,0.41 0.04,0.46 0.17,0.57 0.13,0.11 0.21,0.13 0.53,0.13l0.37 0 -0.36 0.23c-0.2,0.13 -0.5,0.33 -0.67,0.45 -0.27,0.19 -0.33,0.21 -0.61,0.21 -0.43,0 -0.47,0.07 -0.47,0.77 0,0.76 0.05,0.8 1.2,0.79 0.68,0 0.98,-0.05 1.08,-0.18 0.1,-0.14 0.09,-1.12 -0.01,-1.27 -0.05,-0.06 -0.12,-0.11 -0.16,-0.11 -0.16,0 -0.06,-0.09 0.25,-0.2 0.43,-0.16 1.08,-0.47 1.26,-0.6 0.13,-0.09 0.23,-0.1 0.97,-0.09 0.81,0 0.83,0 0.98,-0.12 0.15,-0.13 0.15,-0.14 0.15,-0.69 0,-0.04 0,-0.07 0,-0.1 0,-0.26 0,-0.42 -0.08,-0.52 -0.11,-0.14 -0.41,-0.14 -1.14,-0.14 -0.06,0 -0.12,0 -0.18,0l-1.16 0 0.47 -0.27c0.26,-0.16 0.72,-0.44 1.02,-0.64l0.55 -0.37 1.03 0.02 1.03 0.01zm-25.45 10.67c0.05,0.02 3.84,0.03 8.43,0.04 0.31,0 0.61,0 0.9,0 7.22,0 7.67,0 7.76,-0.17 0.01,-0.02 0.01,-0.04 0.02,-0.07 0.02,-0.04 0.03,-0.43 0.03,-0.86 0,-0.76 0,-0.79 -0.13,-0.91l-0.12 -0.13 -3.61 0c-1.99,0 -3.61,-0.02 -3.61,-0.05 0,-0.02 -0.12,-0.22 -0.26,-0.43l-0.26 -0.38 0.57 -0.03c0.75,-0.03 0.79,-0.07 0.79,-0.64l0 -0.42 0.14 0.04c0.08,0.02 0.3,0.08 0.5,0.14l0.35 0.1 0 0.28c0,0.24 0.02,0.3 0.14,0.39 0.12,0.1 0.2,0.11 1.07,0.11 1.09,0 1.11,-0.01 1.17,-0.5 0.05,-0.42 0,-0.8 -0.14,-0.94 -0.12,-0.12 -0.14,-0.13 -1.04,-0.13 -0.86,0 -0.94,0.01 -1.06,0.11 -0.08,0.06 -0.13,0.13 -0.12,0.14 0.01,0.02 -0.22,0.04 -0.52,0.04 -0.29,0 -0.53,-0.02 -0.51,-0.04 0.01,-0.02 -0.03,-0.08 -0.1,-0.14 -0.11,-0.1 -0.18,-0.11 -1.05,-0.11 -0.93,0 -0.93,0 -1.06,0.14 -0.13,0.12 -0.13,0.15 -0.12,0.68 0.02,0.51 0.03,0.55 0.15,0.65 0.07,0.05 0.2,0.1 0.27,0.1 0.13,0 0.15,0.03 0.23,0.3 0.05,0.17 0.1,0.37 0.13,0.44l0.04 0.15 -3.38 0 0.25 -0.44c0.22,-0.41 0.25,-0.45 0.4,-0.45 0.09,0 0.22,-0.04 0.29,-0.1 0.12,-0.09 0.12,-0.13 0.12,-0.68 0,-0.03 0,-0.05 0,-0.08 0.01,-0.31 0.01,-0.48 -0.08,-0.58 -0.11,-0.13 -0.38,-0.13 -0.99,-0.13 -0.04,0 -0.07,0 -0.11,0 -0.84,0 -0.94,-0.01 -0.88,-0.08 0.04,-0.04 0.05,-0.09 0.03,-0.11 -0.02,-0.02 -0.39,0.02 -0.83,0.08 -0.62,0.1 -0.98,0.12 -1.68,0.12 -0.84,-0.01 -0.9,-0.01 -1.04,0.1 -0.07,0.06 -0.14,0.15 -0.14,0.2 0,0.06 -0.07,0.11 -0.21,0.16 -0.17,0.05 -0.52,0.19 -0.74,0.31 -0.02,0.01 -0.04,-0.11 -0.04,-0.26 0,-0.21 -0.03,-0.3 -0.11,-0.4l-0.12 -0.12 -6.52 0 -0.12 0.13c-0.12,0.12 -0.13,0.17 -0.13,0.62 0,0.28 0.01,0.54 0.03,0.58 0.09,0.24 0.15,0.24 3.51,0.24 3.11,0 3.19,0 3.32,-0.1 0.08,-0.07 0.21,-0.11 0.34,-0.11 0.11,0 0.32,-0.02 0.47,-0.05 0.26,-0.05 0.27,-0.04 0.42,0.1l0.16 0.16 0.94 0c0.87,0 0.95,-0.01 1.05,-0.1 0.12,-0.13 0.18,-0.4 0.15,-0.76l-0.03 -0.27 0.48 -0.19c0.26,-0.1 0.53,-0.2 0.6,-0.22l0.12 -0.04 -0.11 0.14c-0.1,0.13 -0.11,0.21 -0.11,0.67 0,0.48 0.01,0.52 0.13,0.64 0.11,0.12 0.17,0.13 0.54,0.13 0.24,0 0.42,0.02 0.42,0.04 0,0.03 -0.07,0.11 -0.16,0.2 -0.08,0.08 -0.24,0.26 -0.35,0.4l-0.19 0.25 -4.73 0 -0.13 0.13c-0.13,0.12 -0.13,0.14 -0.13,0.93 0,0.76 0,0.81 0.12,0.91 0.06,0.06 0.15,0.12 0.19,0.13zm18.42 -3.05c0.07,0.04 0.91,0.06 2.65,0.06 0.25,0 0.48,0 0.69,0 1.5,0 1.95,0.01 2.08,-0.2 0.05,-0.09 0.05,-0.21 0.05,-0.39 -0.01,-0.06 -0.01,-0.13 -0.01,-0.2 0,-0.07 0.01,-0.14 0.01,-0.21 0,-0.17 0.01,-0.29 -0.05,-0.38 -0.12,-0.19 -0.56,-0.19 -2.02,-0.19 -0.23,0 -0.48,0 -0.76,0 -2.32,0 -2.63,0.01 -2.74,0.09 -0.13,0.08 -0.13,0.1 -0.13,0.64 0,0.58 0.02,0.67 0.23,0.78zm-1.96 -9.89l-0.6 0.8 -1.29 0c-1.08,0.01 -1.3,-0.01 -1.3,-0.07 0,-0.04 0.02,-0.08 0.04,-0.09 0.03,-0.01 0.45,-0.44 0.94,-0.96l0.91 -0.95 0.9 -0.43c0.56,-0.26 0.97,-0.42 1.07,-0.42 0.66,0 0.47,0.59 -0.67,2.12zm-23.38 7.37l0.12 0.12 3.15 0 0.13 -0.12c0.12,-0.12 0.13,-0.17 0.13,-0.62 0,-0.42 -0.02,-0.52 -0.11,-0.63l-0.11 -0.14 -1.62 0c-0.13,0 -0.25,0 -0.36,0 -0.95,0 -1.29,0 -1.4,0.16 -0.07,0.08 -0.07,0.22 -0.06,0.43 0,0.04 0,0.09 0,0.14 0,0.49 0.01,0.54 0.13,0.66zm25.22 5.51c0.16,0.09 0.27,0.1 1.05,0.1l0.88 0 0.16 -0.15 0.15 -0.15 0 -0.74c0,-0.77 -0.05,-1 -0.24,-1.07 -0.05,-0.02 -0.49,-0.03 -0.99,-0.03 -0.83,0 -0.91,0.01 -1.04,0.11l-0.14 0.11 0 1.71 0.17 0.11zm-25.2 -0.05l0.15 0.15 1.8 0 0.15 -0.15 0.15 -0.15 0 -0.79c0,-0.78 0,-0.8 -0.13,-0.93l-0.13 -0.13 -0.97 0.02c-0.07,0 -0.14,0 -0.2,0 -0.51,0.01 -0.75,0.01 -0.87,0.13 -0.11,0.12 -0.1,0.33 -0.1,0.74 0,0.05 0,0.11 0,0.17l0 0.79 0.15 0.15zm3.41 0.05c0.16,0.09 0.27,0.1 1.05,0.1 0.84,0 0.87,0 1.02,-0.13l0.14 -0.12 0 -1.64 -0.14 -0.13c-0.15,-0.12 -0.17,-0.12 -1.08,-0.12 -0.07,0 -0.14,0 -0.21,0 -0.48,0 -0.72,0 -0.84,0.11 -0.11,0.12 -0.11,0.34 -0.11,0.77 0,0.06 0,0.12 0,0.19l0 0.86 0.17 0.11zm25.21 0.02c0.12,0.07 0.32,0.08 1.06,0.07 0.06,0 0.12,0 0.18,0 0.47,-0.01 0.7,-0.01 0.81,-0.13 0.12,-0.11 0.11,-0.34 0.11,-0.78 0,-0.06 0,-0.12 0,-0.18l0 -0.82 -0.14 -0.12c-0.13,-0.1 -0.19,-0.11 -1.1,-0.09 -0.65,0.01 -0.93,0 -1.06,0.14 -0.1,0.11 -0.1,0.31 -0.1,0.69 0,0.05 0,0.1 0,0.15 0,0.81 0.03,0.95 0.24,1.07zm-9.65 -7.42c0,0.07 0.09,0.02 0.32,-0.18l0.25 -0.21 0.48 0c0.43,0 0.48,-0.01 0.6,-0.13 0.12,-0.12 0.13,-0.16 0.13,-0.67 0,-0.03 0,-0.07 0,-0.1 0,-0.29 0,-0.46 -0.08,-0.55 -0.11,-0.12 -0.36,-0.12 -0.94,-0.11 -0.04,0 -0.09,0 -0.14,0 -0.7,0.01 -0.99,0.01 -1.11,0.15 -0.08,0.09 -0.08,0.26 -0.08,0.55 0,0.03 0,0.06 0,0.09l0 0.56 0.17 0.11c0.09,0.05 0.25,0.1 0.36,0.1l0.19 0 -0.07 0.18c-0.04,0.1 -0.08,0.2 -0.08,0.21zm-15.59 -0.5c0.13,0.1 0.21,0.11 1.05,0.11l0.91 0 0.16 -0.16c0.16,-0.15 0.16,-0.16 0.14,-0.68 -0.01,-0.32 -0.01,-0.5 -0.1,-0.6 -0.12,-0.13 -0.38,-0.13 -1.01,-0.13 -0.03,0 -0.06,0 -0.08,0 -0.86,0 -0.94,0.01 -1.07,0.11 -0.13,0.11 -0.14,0.13 -0.14,0.68 0,0.55 0.01,0.57 0.14,0.67zm-3.31 0.06c0.07,0.03 0.54,0.04 1.05,0.04 0.65,-0.01 0.93,-0.01 1.05,-0.14 0.08,-0.1 0.08,-0.28 0.08,-0.58 0,-0.02 0,-0.04 0,-0.06 0,-0.48 -0.01,-0.53 -0.13,-0.65 -0.12,-0.13 -0.14,-0.13 -1.07,-0.13 -0.93,0 -0.95,0 -1.07,0.13 -0.12,0.12 -0.13,0.17 -0.13,0.63 0,0.54 0.04,0.68 0.22,0.76zm21.81 4.79c0.12,0.11 0.17,0.12 1.04,0.12 0.9,0 0.92,0 1.05,-0.13 0.12,-0.12 0.12,-0.16 0.12,-0.67 0,-0.53 0,-0.55 -0.13,-0.66 -0.13,-0.1 -0.21,-0.11 -1.07,-0.11 -0.04,0 -0.07,0 -0.1,0 -0.62,0 -0.88,0 -0.99,0.13 -0.08,0.1 -0.08,0.27 -0.07,0.57 0,0.02 0,0.04 0,0.07 0.01,0.53 0.02,0.57 0.15,0.68zm-17.28 -2.44c0.11,0.09 0.21,0.1 1.06,0.1 0.03,0 0.06,0 0.09,0 0.63,0 0.9,0 1.01,-0.13 0.09,-0.1 0.09,-0.28 0.09,-0.59 0,-0.02 0,-0.03 0,-0.05 0,-0.04 0,-0.08 0,-0.11 0,-0.27 0,-0.42 -0.07,-0.51 -0.11,-0.12 -0.35,-0.12 -0.93,-0.12 -0.06,0 -0.12,0 -0.18,0 -0.05,0 -0.09,0 -0.14,0 -0.61,0 -0.87,0 -0.98,0.13 -0.08,0.09 -0.08,0.26 -0.08,0.54 0,0.03 0,0.06 0,0.1 0,0.51 0.01,0.55 0.13,0.64zm24.34 0.11c0.52,0.06 1.65,-0.01 1.75,-0.1 0.08,-0.07 0.09,-0.17 0.09,-0.65 0,-0.05 0,-0.09 0,-0.12 0,-0.28 0,-0.44 -0.07,-0.53 -0.11,-0.12 -0.35,-0.12 -0.92,-0.12 -0.05,0 -0.11,0 -0.17,0 -0.06,0 -0.12,0 -0.18,0 -0.58,0 -0.83,0 -0.93,0.12 -0.08,0.09 -0.08,0.24 -0.08,0.51 0,0.04 0,0.07 0,0.11 0,0.67 0.04,0.73 0.51,0.78zm-23.24 -9.6c0.13,0.12 0.24,0.18 0.25,0.15 0.04,-0.13 -1.05,-2.02 -1.68,-2.9 -0.48,-0.67 -0.97,-1.21 -1.18,-1.28 -0.18,-0.07 -0.39,0.02 -0.41,0.18 -0.01,0.06 0.04,0.23 0.11,0.37 0.14,0.26 0.76,1.12 1.09,1.5 0.58,0.67 1.63,1.81 1.82,1.98zm33.5 29.06c0.07,0.16 0.13,0.29 0.15,0.29 0.02,0 0.09,-0.13 0.15,-0.29 0.15,-0.34 0.52,-0.7 0.86,-0.84 0.14,-0.05 0.25,-0.11 0.25,-0.13 0,-0.02 -0.11,-0.08 -0.25,-0.13 -0.34,-0.13 -0.71,-0.49 -0.86,-0.84 -0.06,-0.15 -0.13,-0.28 -0.15,-0.28 -0.02,0 -0.08,0.13 -0.15,0.28 -0.14,0.35 -0.51,0.71 -0.86,0.84 -0.13,0.05 -0.24,0.11 -0.24,0.13 0,0.02 0.11,0.08 0.24,0.13 0.35,0.14 0.72,0.5 0.86,0.84zm-24.07 -26.93l-0.35 0.78 -0.39 0c-0.28,0 -0.38,-0.02 -0.38,-0.07 0,-0.18 0.15,-0.47 0.5,-0.96 0.21,-0.29 0.58,-0.83 0.82,-1.2 0.24,-0.37 0.49,-0.71 0.54,-0.76 0.12,-0.11 0.8,-0.46 0.9,-0.46 0.03,0 0.06,0.02 0.06,0.04 0,0.02 -0.22,0.31 -0.5,0.64 -0.56,0.67 -0.7,0.9 -1.2,1.99zm12.93 3.11l-0.39 0.38 -0.59 0c-0.32,0 -0.58,-0.01 -0.58,-0.03 0,-0.02 0.24,-0.3 0.53,-0.62l0.54 -0.59 0.73 -0.01 0.73 0 -0.29 0.25c-0.15,0.13 -0.46,0.41 -0.68,0.62zm4.08 -5.04c0,0.02 0.03,0.04 0.08,0.04 0.13,0 1.42,-0.67 1.74,-0.92 0.36,-0.27 0.74,-0.71 0.74,-0.87 0,-0.09 -0.02,-0.1 -0.24,-0.07 -0.34,0.05 -0.72,0.24 -1.21,0.64 -0.38,0.3 -1.11,1.08 -1.11,1.18zm-25.63 -3.69c0.13,0.24 0.27,0.44 0.3,0.44 0.07,0 0.02,-0.45 -0.12,-1.17 -0.15,-0.78 -0.36,-1.18 -0.6,-1.18 -0.42,0 -0.28,0.62 0.42,1.91zm14.4 -10.53c0,0.3 1.04,-0.15 1.67,-0.71 0.29,-0.27 0.28,-0.36 -0.03,-0.33 -0.55,0.07 -1.64,0.75 -1.64,1.04zm-18.63 14.7c0.11,0.04 0.26,0.07 0.33,0.08 0.17,0.01 0.08,-0.13 -0.31,-0.47 -0.51,-0.45 -0.88,-0.68 -1.1,-0.68 -0.26,0 -0.35,0.12 -0.23,0.3 0.06,0.08 0.14,0.18 0.18,0.22 0.1,0.08 0.85,0.45 1.13,0.55z"/>
  <rect class="fil1" x="4.95" y="3.57" width="46.13" height="42.13"/>
  <path class="fil0" d="M50.32 52.29c-0.25,-0.61 -0.91,-1.24 -1.51,-1.47 -0.24,-0.1 -0.44,-0.2 -0.44,-0.24 0,-0.03 0.2,-0.14 0.44,-0.23 0.6,-0.23 1.26,-0.87 1.51,-1.48 0.11,-0.27 0.23,-0.5 0.26,-0.5 0.03,0 0.15,0.23 0.27,0.5 0.25,0.61 0.9,1.25 1.51,1.48 0.24,0.09 0.43,0.2 0.43,0.23 0,0.04 -0.19,0.14 -0.43,0.24 -0.61,0.23 -1.26,0.86 -1.51,1.47 -0.12,0.28 -0.24,0.5 -0.27,0.5 -0.03,0 -0.15,-0.22 -0.26,-0.5z"/>
  <path class="fil2" d="M25.09 36.01c0,0 0.01,0.01 0.03,0.01 -0.14,0.02 -0.26,0.07 -0.42,0.18 -0.44,0.28 -0.77,0.38 -1.34,0.42 -0.59,0.03 -0.97,-0.08 -1.5,-0.44l-0.31 -0.2 -0.58 0.01c0.17,-0.01 0.34,-0.02 0.42,-0.02l0.24 0 -0.16 -0.27c-0.19,-0.31 -0.26,-0.88 -0.16,-1.24l0.06 -0.22 -0.01 0 0.13 -0.38c0.07,-0.2 0.26,-0.74 0.43,-1.18 0.16,-0.44 0.36,-1.01 0.43,-1.26 0.06,-0.24 0.21,-0.65 0.32,-0.89 0.12,-0.24 0.21,-0.46 0.21,-0.49 0,-0.03 -0.16,-0.05 -0.35,-0.05l-0.35 0 -0.31 0.49c-0.16,0.28 -0.44,0.65 -0.61,0.83l-0.31 0.32 0.01 0.37c-0.01,-0.2 -0.03,-0.34 -0.04,-0.34 -0.03,0 -0.14,0.06 -0.26,0.14 -0.33,0.22 -0.74,0.35 -1.22,0.38 -0.42,0.04 -0.6,0 -1.07,-0.19 -0.05,-0.02 -0.08,-0.02 -0.09,0.07 -0.01,-0.12 -0.03,-0.16 -0.06,-0.16 -0.14,0 -0.58,-0.5 -0.66,-0.75 -0.04,-0.14 -0.07,-0.46 -0.07,-0.71l0 -0.45 -0.83 0c0.86,0 0.88,-0.01 0.91,-0.14 0.01,-0.07 0.12,-0.45 0.23,-0.84l0.21 -0.7 0 0 0.16 -0.55c0.1,-0.31 0.26,-0.9 0.37,-1.31 0.11,-0.41 0.22,-0.8 0.24,-0.86 0.04,-0.1 0.03,-0.1 -0.14,-0.01 -0.1,0.05 -0.39,0.15 -0.65,0.22 -0.88,0.24 -1.77,0.05 -2.31,-0.49 -0.68,-0.69 -0.7,-1.47 -0.06,-2.31 0.77,-1 2.24,-2.77 2.44,-2.95 0.49,-0.42 0.86,-0.8 0.84,-0.84 -0.02,-0.03 -0.21,-0.08 -0.43,-0.12 -1.84,-0.32 -2.4,-2.45 -0.89,-3.33 0.15,-0.09 0.75,-0.36 1.34,-0.6 1.1,-0.45 1.68,-0.74 3,-1.54 2.17,-1.3 3.73,-2.18 5,-2.82 1.67,-0.83 2.13,-1.02 2.13,-0.86 0,0.09 -0.19,0.27 -0.74,0.69 -0.45,0.35 -2.13,1.47 -2.78,1.86 -0.55,0.33 -0.64,0.43 -0.38,0.43 0.2,0 1.89,-0.24 2.85,-0.4 0.79,-0.13 0.97,-0.2 2.78,-1.09 1.68,-0.82 4.69,-2.27 5.39,-2.6 0.22,-0.1 0.84,-0.4 1.38,-0.66 1.14,-0.55 1.68,-0.78 1.68,-0.7 0,0.05 -0.74,0.53 -1.47,0.96 -0.54,0.3 -0.59,0.33 -1.56,0.92 -0.9,0.55 -2.45,1.47 -3.21,1.91 -0.54,0.31 -0.69,0.43 -0.64,0.49 0.01,0.01 0.41,-0.05 0.89,-0.13 0.48,-0.07 1.6,-0.25 2.48,-0.38 2.76,-0.41 3.08,-0.5 4.86,-1.32 0.62,-0.29 1.35,-0.62 1.61,-0.75 0.41,-0.18 1.37,-0.61 1.8,-0.8 0.24,-0.11 0.68,-0.3 1.54,-0.69 1.36,-0.61 1.39,-0.49 0.08,0.31 -0.37,0.22 -0.88,0.54 -1.14,0.7 -0.88,0.57 -2.63,1.64 -2.89,1.77 -0.14,0.07 -0.26,0.15 -0.26,0.18 0,0.02 0.23,0.51 0.44,0.98l-0.01 -0.04c-0.23,-0.48 -0.45,-0.88 -0.49,-0.88 -0.04,0 -0.29,0.12 -0.56,0.27 -0.56,0.3 -1.64,0.75 -2.16,0.89 -0.49,0.13 -1.55,0.31 -2.7,0.46 -0.93,0.12 -4.63,0.72 -5.91,0.95 -0.36,0.07 -0.83,0.21 -1.08,0.31 -0.69,0.31 -1.86,0.77 -1.89,0.75 -0.02,-0.02 0.37,-0.4 0.58,-0.56 0.01,0 0.01,0 0.02,-0.01 0.02,-0.02 0.04,-0.03 0.04,-0.04 -0.01,-0.03 -0.23,0 -1.12,0.11l-0.15 0.02c-2.17,0.27 -2.56,0.38 -4.64,1.31 -0.62,0.27 -1.51,0.65 -1.99,0.84 -1.04,0.41 -1.69,0.72 -1.79,0.83 -0.04,0.05 -0.08,0.19 -0.1,0.3 -0.03,0.18 -0.01,0.27 0.13,0.46 0.23,0.33 0.61,0.51 1.11,0.51 0.51,0 1.64,-0.34 2.03,-0.61 0.47,-0.33 1.03,-0.64 1.44,-0.79 0.49,-0.18 3.06,-0.88 3.55,-0.97 0.2,-0.04 0.57,-0.13 0.82,-0.21 1.79,-0.55 1.85,-0.56 1.24,-0.11 -0.78,0.57 -1.6,0.95 -3.41,1.55 -0.93,0.32 -1.82,0.61 -1.97,0.66 -0.16,0.05 -0.47,0.22 -0.7,0.37 -0.37,0.26 -0.64,0.49 -1.89,1.64 -0.2,0.18 -0.64,0.56 -0.97,0.85 -0.34,0.29 -0.68,0.62 -0.78,0.75 -0.28,0.37 -0.8,1.03 -1.41,1.75 -0.78,0.93 -0.86,1.09 -0.68,1.43 0.21,0.41 1.01,0.55 1.65,0.29 0.5,-0.21 0.8,-0.44 1.55,-1.22 0.38,-0.38 0.84,-0.84 1.01,-1 0.18,-0.17 0.42,-0.47 0.53,-0.67 0.61,-1.03 1,-1.31 3.73,-2.67 1.11,-0.55 2.37,-1.2 2.81,-1.45 0.85,-0.49 1.08,-0.59 1,-0.45 -0.15,0.25 -0.69,0.87 -1.02,1.17 -0.45,0.41 -2.34,1.56 -3.74,2.26 -0.55,0.28 -1.46,0.91 -1.61,1.12 -0.28,0.41 -1.74,2.97 -2.29,4.03 -0.19,0.37 -0.35,0.82 -0.51,1.38 -0.12,0.46 -0.35,1.27 -0.52,1.8 -0.31,1.01 -0.41,1.6 -0.29,1.81 0.12,0.23 0.41,0.33 0.82,0.3 0.95,-0.08 1.6,-0.89 2.26,-2.84 0.32,-0.95 0.31,-0.92 0.81,-1.6 0.22,-0.3 0.7,-1 1.06,-1.55 0.59,-0.92 0.68,-1.03 1,-1.22 0.39,-0.24 2.27,-1.16 3.09,-1.51 0.3,-0.14 0.61,-0.31 0.67,-0.38 0.06,-0.08 0.34,-0.43 0.61,-0.78 0.27,-0.35 0.52,-0.64 0.54,-0.65 0.14,0 -0.28,1.35 -0.57,1.86 -0.31,0.55 -0.85,1.28 -2.06,2.78 -1.14,1.42 -1.16,1.45 -1.58,2.37 -0.24,0.51 -0.72,1.52 -1.08,2.25 -0.44,0.89 -0.72,1.54 -0.86,2.01 -0.11,0.38 -0.37,1.14 -0.58,1.68 -0.43,1.15 -0.48,1.44 -0.29,1.69 0.08,0.09 0.22,0.21 0.32,0.25 0.1,0.04 0.34,0.08 0.52,0.08 0.44,0 0.84,-0.19 1.23,-0.6 0.51,-0.52 0.7,-0.86 1.46,-2.57 0.15,-0.35 0.52,-1.03 0.82,-1.53 0.3,-0.49 0.7,-1.19 0.89,-1.55 0.33,-0.63 0.41,-0.73 1.46,-1.8 0.61,-0.63 1.39,-1.43 1.74,-1.79l0.62 -0.65 1.04 -0.5c0.57,-0.28 1.15,-0.55 1.28,-0.6 0.32,-0.11 0.91,-0.11 1.3,0.01l0.3 0.09 0.98 -0.48c0.54,-0.26 1.06,-0.49 1.15,-0.52 0.16,-0.03 0.17,-0.03 0.11,0.08 -0.08,0.15 -0.88,0.9 -1.37,1.29 -0.37,0.29 -0.38,0.3 -0.38,0.6 0,0.4 -0.12,0.84 -0.35,1.29 -0.19,0.39 -1.02,1.61 -1.38,2.05 -0.56,0.68 -1.04,1.6 -1.14,2.23 -0.04,0.23 -0.06,0.65 -0.05,0.92 0.02,0.42 0.06,0.56 0.23,0.9 0.22,0.44 0.5,0.67 0.92,0.8 0.3,0.09 0.34,0.05 0.94,-0.84 0.56,-0.84 1.24,-1.69 1.98,-2.49 0.31,-0.33 0.76,-0.82 1.01,-1.1 0.25,-0.27 0.77,-0.78 1.17,-1.12 1.3,-1.14 1.77,-1.83 2.66,-3.97 0.39,-0.93 0.61,-1.38 0.9,-1.8 0.46,-0.66 1.4,-1.52 2.26,-2.04 0.24,-0.15 0.44,-0.29 0.44,-0.31 0,-0.02 -0.08,-0.19 -0.18,-0.42l0.2 0.42 0.36 -0.21c0.2,-0.12 0.54,-0.3 0.75,-0.42 0.22,-0.11 0.64,-0.35 0.93,-0.52 0.3,-0.17 0.77,-0.44 1.05,-0.59 0.28,-0.14 0.83,-0.45 1.23,-0.67 0.95,-0.54 1.78,-0.99 1.84,-0.99 0.03,0 0.04,0.03 0.02,0.06 -0.04,0.06 -1.63,1.26 -2.58,1.94 -0.4,0.28 -1.14,0.82 -1.65,1.2 -0.51,0.38 -1.37,1.03 -1.91,1.43 -1.62,1.19 -1.92,1.56 -2.58,3.09 -0.51,1.19 -1.07,2.31 -1.42,2.84 -0.15,0.23 -0.5,0.65 -0.78,0.94 -0.27,0.29 -0.49,0.55 -0.49,0.59 0,0.05 0.33,0.07 1.11,0.07 0.98,0 1.13,-0.01 1.27,-0.11 0.27,-0.19 2.04,-1.17 2.85,-1.59 1.25,-0.64 1.23,-0.55 -0.14,0.55 -0.48,0.39 -0.97,0.77 -1.09,0.86 -0.25,0.18 -0.29,0.29 -0.13,0.29 0.08,0 0.19,0.04 0.32,0.1 -0.37,-0.16 -0.53,-0.12 -0.95,0.19 -0.22,0.16 -0.71,0.5 -1.09,0.75 -0.38,0.26 -0.73,0.51 -0.77,0.55 -0.03,0.03 -0.03,0.05 0.03,0.06l-0.18 0 -0.63 0.41c-0.35,0.23 -0.88,0.56 -1.17,0.74l-0.54 0.31 0.1 0 -0.52 0.24c-0.29,0.14 -0.54,0.23 -0.56,0.21 -0.01,-0.01 0.05,-0.12 0.13,-0.24l0.17 -0.21 0.01 0 0.45 -0.43c0.25,-0.24 0.61,-0.57 0.79,-0.72l0.32 -0.28 -0.83 0 -0.84 0.01 -0.61 0.67c-0.34,0.37 -0.62,0.7 -0.62,0.72 0,0.02 0.3,0.03 0.67,0.03 -0.49,0 -0.67,0.03 -0.77,0.1 -0.23,0.15 -0.32,0.4 -0.32,0.89l0 0.01 -0.03 -0.51 -0.26 0.34c-0.14,0.19 -0.45,0.62 -0.69,0.97 -0.45,0.66 -0.79,0.97 -1.16,1.07l-0.22 0.06 0.02 0.65c0.01,0.43 -0.01,0.68 -0.06,0.78 -0.02,0.03 -0.04,0.06 -0.07,0.09 0.12,-0.12 0.14,-0.34 0.12,-0.85l-0.01 -0.62 -0.33 -0.08c-0.18,-0.04 -0.66,-0.07 -1.15,-0.08 0.32,-0.01 0.55,-0.04 0.55,-0.06 0,-0.03 -0.1,-0.11 -0.23,-0.19 -0.56,-0.33 -0.96,-0.87 -1.21,-1.63 -0.12,-0.37 -0.13,-0.49 -0.1,-1.2 0.02,-0.43 0.05,-0.87 0.08,-0.98l0.03 -0.19 -0.71 -0.01c0.69,0 0.78,-0.03 0.8,-0.1 0.08,-0.25 0.34,-0.82 0.53,-1.16 0.12,-0.2 0.21,-0.37 0.21,-0.39 0,-0.01 -0.68,-0.02 -1.51,-0.02l-1.52 0 -0.49 0.49c-0.34,0.35 -0.53,0.6 -0.64,0.84l-0.14 0.34c-0.05,0.01 -0.07,0.01 -0.07,0.01 0,0.03 -0.1,0.21 -0.22,0.42 -0.12,0.21 -0.3,0.53 -0.4,0.71 -0.1,0.18 -0.28,0.48 -0.41,0.67 -0.19,0.28 -0.37,0.62 -0.65,1.28 -0.03,0.07 -0.16,0.36 -0.29,0.64 -0.23,0.5 -0.23,0.53 -0.11,0.53 0,0 0.01,0 0.01,0 -0.11,0.03 -0.22,0.17 -0.39,0.46 -0.15,0.25 -0.42,0.64 -0.61,0.86 -0.19,0.22 -0.35,0.42 -0.35,0.45zm-9.53 -6.31l0.22 0.29 -0.04 0 0.13 0.18c0.07,0.09 0.12,0.22 0.11,0.27 -0.01,0.08 -0.1,0.04 -0.36,-0.18l-0.34 -0.27 -1.46 0 0.68 0.53c0.38,0.29 0.76,0.61 0.86,0.72 0.17,0.18 0.17,0.18 0.82,0.18l-0.51 0 0.17 0.18c0.22,0.23 0.17,0.23 -0.38,0 -0.33,-0.14 -0.5,-0.18 -0.66,-0.16 -0.06,0.01 -0.11,0.03 -0.16,0.04 0.01,0 0.01,0 0.01,0 0.08,-0.03 0.14,-0.08 0.14,-0.11 0,-0.05 -1.88,-1.06 -2.45,-1.32 -0.12,-0.05 -0.33,-0.07 -1.22,-0.08 0.59,-0.01 0.94,-0.02 0.94,-0.04 0.02,-0.03 -0.09,-0.13 -0.25,-0.22 -0.7,-0.41 -1.25,-0.92 -1.31,-1.23l-0.03 -0.17 -0.96 0c2.23,0 3.97,-0.02 3.97,-0.05 0,-0.02 -0.24,-0.31 -0.53,-0.65 -1,-1.15 -1.5,-1.79 -1.43,-1.85 0.04,-0.04 1.32,0.64 2.45,1.3 0.65,0.38 0.73,0.45 0.97,0.82l0.27 0.4 -0.16 0.04c-0.09,0.02 0.12,0.02 0.46,0 0.35,-0.01 0.64,-0.04 0.66,-0.05 0.03,-0.03 0.02,-0.05 -0.29,-0.79 -0.1,-0.24 -0.2,-0.51 -0.21,-0.58 -0.04,-0.21 0.08,-0.13 0.6,0.4 0.39,0.4 0.44,0.46 0.45,0.71l0.02 0.27 0.63 0.02 0.49 0.01 -0.5 0c-0.63,0 -0.65,0 -0.65,0.13 0,0.19 -0.07,0.41 -0.12,0.41 -0.02,0 -0.11,-0.13 -0.19,-0.28l-0.14 -0.28 -0.71 0.04c-0.39,0.02 -0.73,0.05 -0.74,0.06 -0.08,0.08 0.23,0.62 0.75,1.31zm18.03 -2.32c1.32,-1.75 1.53,-2.43 0.78,-2.43 -0.13,0 -0.59,0.19 -1.24,0.49l-1.03 0.49 -1.03 1.08c-0.57,0.6 -1.06,1.1 -1.08,1.11 -0.02,0.01 -0.04,0.06 -0.04,0.1 0,0.07 0.24,0.09 1.48,0.09l1.48 -0.01 0.68 -0.92zm11.58 -8.62l-0.24 -0.51 -0.8 0.38c-0.99,0.47 -1.9,0.84 -1.96,0.79 -0.02,-0.03 0.06,-0.12 0.17,-0.22 0.45,-0.38 1.43,-1.13 1.8,-1.37 0.21,-0.15 0.4,-0.27 0.41,-0.28 0.02,-0.02 -0.05,-0.18 -0.34,-0.82 0.05,0.11 0.1,0.22 0.14,0.3l0.22 0.49 0.55 -0.34c1.28,-0.77 3.41,-1.74 3.73,-1.68 0.3,0.06 -1.61,1.46 -3.15,2.3 -0.42,0.22 -0.76,0.41 -0.77,0.42 0,0 0.1,0.23 0.24,0.54zm-21.01 8.67c0.58,-1.26 0.73,-1.52 1.38,-2.29 0.31,-0.38 0.57,-0.71 0.57,-0.73 0,-0.03 -0.03,-0.05 -0.07,-0.05 -0.11,0 -0.89,0.4 -1.03,0.52 -0.06,0.06 -0.34,0.45 -0.62,0.88 -0.27,0.42 -0.7,1.04 -0.94,1.37 -0.4,0.56 -0.57,0.89 -0.57,1.1 0,0.06 0.11,0.08 0.42,0.08l-0.47 0 -0.15 0.4c-0.3,0.78 -0.46,1.23 -0.46,1.25 0,0.02 0.16,0.03 0.36,0.03l0.36 0 0.84 -1.68 -0.02 0 0.4 -0.88zm-10.8 -2.45c-0.22,-0.2 -1.42,-1.5 -2.1,-2.28 -0.37,-0.43 -1.08,-1.41 -1.23,-1.71 -0.09,-0.16 -0.15,-0.36 -0.14,-0.43 0.03,-0.18 0.26,-0.28 0.48,-0.21 0.23,0.08 0.8,0.71 1.35,1.48 0.71,1.01 1.97,3.17 1.92,3.31 -0.01,0.05 -0.13,-0.02 -0.28,-0.16zm2.45 12.38c0,0.09 0.03,0.11 0.11,0.08 0.05,-0.02 0.5,-0.11 0.99,-0.21 0.49,-0.09 0.9,-0.18 0.92,-0.2 0.01,-0.01 -0.14,-0.03 -0.38,-0.03 0.62,0 1.01,-0.04 1.64,-0.13 0.5,-0.08 0.93,-0.12 0.95,-0.1 0.02,0.02 0.01,0.08 -0.04,0.13 -0.06,0.08 0.05,0.09 1.01,0.09 -1.06,0 -1.07,0 -1.22,0.15 -0.03,0.03 -0.05,0.05 -0.07,0.08 0.02,-0.03 0.03,-0.05 0.05,-0.08l0.13 -0.16 -0.14 0.04c-0.08,0.02 -0.39,0.14 -0.69,0.26l-0.54 0.21 0.01 0.17c-0.05,-0.12 -0.21,-0.06 -0.72,0.13 -0.8,0.3 -1.22,0.44 -1.63,0.55 -0.21,0.06 -0.38,0.13 -0.38,0.15 0,0.01 0,0.02 0.01,0.02 -0.09,-0.07 -0.16,-0.06 -0.38,-0.02 -0.17,0.03 -0.41,0.06 -0.54,0.06 -0.15,0 -0.3,0.05 -0.39,0.12 -0.01,0.01 -0.02,0.02 -0.03,0.02 0.01,0 0.01,-0.01 0.02,-0.01 0.14,-0.11 0.14,-0.12 0.04,-0.23 -0.14,-0.16 -0.13,-0.28 0.01,-0.41 0.07,-0.06 0.11,-0.19 0.13,-0.33 0.01,0.11 0.02,0.18 0.04,0.17 0.26,-0.13 0.65,-0.3 0.85,-0.36 0.16,-0.04 0.24,-0.1 0.24,-0.17 0,-0.05 0.05,-0.13 0.12,-0.2 -0.07,0.07 -0.12,0.16 -0.12,0.21zm25.61 -9.05l-1.24 0 -0.43 0.35c-0.39,0.31 -1.18,1.13 -1.23,1.27 -0.01,0.03 0.34,0.06 0.79,0.06l0.82 0 0.43 -0.32c0.24,-0.18 0.77,-0.56 1.17,-0.84l0.75 -0.52 -1.06 0zm-28.36 1.13l0.81 0.54 0.71 0 0.72 0.01 -0.85 -0.84 -0.85 -0.84 -1.28 0 -1.27 0 0.6 0.3c0.33,0.16 0.96,0.53 1.41,0.83zm24.33 3.78c0.06,0 0.13,0 0.21,0 0.43,0 0.53,-0.02 1.07,-0.26 0.78,-0.35 1.16,-0.46 1.59,-0.46l0.35 0 -0.09 0.17c-0.04,0.09 -0.17,0.22 -0.27,0.3 -0.1,0.07 -0.18,0.16 -0.18,0.19 0,0.03 0.19,0.05 0.49,0.05 -0.6,0 -0.7,0.02 -0.84,0.12 -0.2,0.14 -0.94,0.49 -1.43,0.68 -0.36,0.13 -0.48,0.23 -0.29,0.23 0.02,0 0.05,0.01 0.08,0.03 -0.05,-0.02 -0.11,-0.03 -0.18,-0.03 -0.1,0 -0.57,0.12 -1.05,0.27 -0.48,0.15 -0.89,0.25 -0.91,0.23 -0.02,-0.02 0.09,-0.14 0.23,-0.27l0.27 -0.23 -0.34 0c-0.01,0 -0.02,0 -0.03,0 0.01,0 0.03,0 0.05,0 0.32,0 0.39,-0.03 0.7,-0.25 0.19,-0.13 0.53,-0.36 0.76,-0.5l0.42 -0.27 -0.43 0c-0.07,0 -0.13,0 -0.18,0zm-9.49 2.29c0.01,0.11 0.02,0.11 0.2,0 0.43,-0.26 1.77,-1.03 1.99,-1.14l0.24 -0.13 -1.11 0c-0.04,0 -0.08,0 -0.12,0 -0.44,0 -0.71,0 -0.89,0.03 0.17,-0.03 0.44,-0.03 0.86,-0.03 0.06,0 0.12,0 0.19,0 0.69,0 1.22,-0.03 1.32,-0.07 0.28,-0.1 0.91,-0.22 1.03,-0.19 0.07,0.01 0.15,0.09 0.19,0.16 0.03,0.05 0.05,0.09 0.14,0.1l-0.1 0.22c-0.08,0.2 -0.12,0.54 -0.11,0.99 0,-0.09 0,-0.18 0,-0.3 0.01,-0.25 -0.02,-0.43 -0.05,-0.43 -0.03,0 -0.19,0.06 -0.34,0.14 -0.16,0.08 -0.39,0.17 -0.51,0.21 -0.19,0.06 -0.22,0.08 -0.23,0.3 0,-0.21 -0.06,-0.2 -0.44,-0.08 -0.17,0.05 -0.69,0.19 -1.17,0.33 -0.47,0.13 -0.88,0.25 -0.89,0.26 -0.01,0.01 -0.01,0.01 -0.01,0.02 -0.06,-0.03 -0.15,-0.03 -0.27,-0.01 -0.24,0.04 -0.28,-0.04 -0.07,-0.15 0.14,-0.07 0.15,-0.11 0.15,-0.68 0,-0.04 0.01,-0.08 0.01,-0.12 0,-0.2 0,-0.34 0.03,-0.44 -0.03,0.1 -0.03,0.23 -0.03,0.43 -0.01,0.26 -0.01,0.52 -0.01,0.58zm2.46 2.19c0.12,0.06 0.24,0.12 0.27,0.12 0.01,0.01 0.02,-0.01 0.03,-0.03 0,0.14 0,0.28 -0.02,0.43 -0.01,0.09 -0.02,0.16 -0.04,0.22 0,-0.06 -0.05,-0.06 -0.22,-0.03 -0.37,0.08 -0.6,0.04 -1.48,-0.21 -0.46,-0.14 -0.87,-0.25 -0.92,-0.25 -0.05,0 -0.07,0.09 -0.07,0.28 0,0 0,-0.01 0,-0.01l0 -0.32 -0.41 -0.12c-0.22,-0.07 -0.47,-0.14 -0.56,-0.16l-0.17 -0.04 0 -0.03 -0.51 -0.16 0.21 -0.03c0.24,-0.02 0.31,-0.07 0.24,-0.17 0.03,0.04 0.05,0.08 0.04,0.09 -0.02,0.02 0.25,0.04 0.59,0.04 0.34,0 0.61,-0.02 0.59,-0.04 -0.01,-0.02 0.05,-0.09 0.14,-0.16 -0.09,0.07 -0.15,0.14 -0.13,0.17 0.01,0.02 0.33,0.06 0.7,0.08 0.77,0.04 1.4,0.16 1.72,0.33zm-10.71 -2.41c-0.01,-0.04 -0.02,-0.07 -0.03,-0.1 -0.06,-0.09 -0.23,-0.12 -0.75,-0.25l-0.33 -0.08 0.02 0.4c0.01,0.35 0,0.41 -0.13,0.56 0.12,-0.14 0.14,-0.21 0.12,-0.55l-0.01 -0.4 -0.63 -0.19c-0.35,-0.1 -0.76,-0.24 -0.92,-0.31 -0.18,-0.08 -0.39,-0.13 -0.57,-0.13 0.1,-0.01 0.17,-0.02 0.17,-0.03 0,-0.01 -0.11,-0.13 -0.24,-0.26 -0.26,-0.26 -0.27,-0.4 -0.02,-0.5 0.43,-0.16 0.92,0.01 2.28,0.78 0.53,0.3 0.98,0.55 1,0.55 0.02,0 0.03,-0.05 0.03,-0.11 0.02,0.11 0.1,0.21 0.24,0.32 0.28,0.19 0.27,0.28 -0.01,0.2 -0.11,-0.03 -0.2,-0.05 -0.21,-0.05 -0.01,0 -0.01,0.06 -0.01,0.15zm6.16 4.47c0,0.02 1.86,0.05 4.14,0.05l-4.06 0 0.18 0.35c0.21,0.42 0.28,0.99 0.15,1.17 -0.08,0.1 -0.1,0.1 -0.27,0.01 -0.36,-0.18 -0.63,-0.63 -0.88,-1.43 -0.03,-0.1 -0.18,-0.1 -1.98,-0.1l1.94 0 -0.05 -0.17c-0.03,-0.09 -0.1,-0.32 -0.15,-0.51 -0.09,-0.31 -0.11,-0.34 -0.26,-0.34 -0.09,0 -0.23,-0.05 -0.31,-0.12 0.08,0.07 0.22,0.12 0.32,0.12 0.15,0 0.16,-0.02 0.13,-0.14 -0.02,-0.07 -0.06,-0.22 -0.08,-0.33 -0.05,-0.28 0.05,-0.24 0.33,0.14l0.23 0.3 0.63 0.02c0.08,0 0.15,0 0.21,0 -0.05,0 -0.1,0.01 -0.16,0.01l-0.66 0.03 0.3 0.44c0.17,0.24 0.3,0.47 0.3,0.5zm5.69 -22.86c-1.11,0.46 -1.24,0.47 -0.73,0.04 0.96,-0.8 3.18,-1.95 4.04,-2.08 0.24,-0.04 0.25,-0.04 0.17,0.06 -0.33,0.4 -2.17,1.45 -3.48,1.98zm-10.07 22.4l-0.28 0.51 0 0 -0.14 0.24c-0.14,0.26 -0.59,0.64 -0.81,0.69 -0.31,0.08 -0.4,-0.23 -0.2,-0.68l0.12 -0.25 -0.02 0 0.22 -0.29c0.12,-0.15 0.3,-0.36 0.4,-0.46 0.1,-0.09 0.18,-0.2 0.18,-0.22 0,-0.03 -0.21,-0.05 -0.48,-0.05 -0.29,0 -0.42,-0.01 -0.51,-0.05 0.1,0.04 0.23,0.05 0.58,0.05l0.54 0 0.52 -0.48c0.28,-0.26 0.53,-0.48 0.56,-0.48 0.04,0 -0.12,0.48 -0.25,0.72 -0.03,0.06 -0.06,0.14 -0.06,0.17 0,0.06 0.07,0.08 0.17,0.06 -0.03,0.01 -0.05,0.01 -0.07,0.01 -0.18,0 -0.21,0.04 -0.47,0.51zm22.23 -14.09c0,-0.12 0.83,-1.01 1.27,-1.36 0.56,-0.45 0.99,-0.68 1.39,-0.73 0.25,-0.03 0.27,-0.03 0.27,0.08 0,0.18 -0.43,0.69 -0.84,1 -0.37,0.28 -1.85,1.05 -2,1.05 -0.05,0 -0.09,-0.02 -0.09,-0.04zm-29.37 -4.23c-0.81,-1.48 -0.97,-2.19 -0.49,-2.19 0.28,0 0.51,0.46 0.69,1.35 0.16,0.82 0.21,1.34 0.13,1.34 -0.03,0 -0.18,-0.22 -0.33,-0.5zm16.74 -0.01c-0.12,0.14 -0.2,0.11 -0.15,-0.04 0.09,-0.32 0.37,-0.74 0.66,-1 0.32,-0.29 1.31,-0.78 1.76,-0.87l0.2 -0.04 -0.17 0.19c-0.2,0.2 -0.73,0.61 -1.62,1.24 -0.33,0.23 -0.64,0.46 -0.68,0.52zm-2.46 12.7c0,-0.02 0.04,-0.13 0.08,-0.24l0.09 -0.21 -0.22 0c-0.05,0 -0.1,-0.01 -0.16,-0.02 0.05,0.01 0.11,0.01 0.17,0.01 0.2,-0.02 0.26,-0.05 0.36,-0.22l0.12 -0.2 -0.15 -0.11c-0.13,-0.1 -0.13,-0.12 -0.05,-0.2 0.13,-0.14 1.38,-0.88 1.44,-0.86 0.09,0.03 -0.4,0.89 -0.68,1.21 -0.16,0.18 -0.28,0.34 -0.28,0.36 0,0.01 0.22,0.03 0.5,0.03 -0.01,0 -0.02,0 -0.03,0l-0.54 0 -0.29 0.24c-0.26,0.22 -0.36,0.28 -0.36,0.21zm2.21 -24.76c0,-0.33 1.25,-1.12 1.89,-1.19 0.35,-0.04 0.36,0.07 0.03,0.37 -0.72,0.65 -1.92,1.16 -1.92,0.82zm-21.34 16.84c-0.32,-0.11 -1.18,-0.53 -1.3,-0.63 -0.05,-0.04 -0.14,-0.15 -0.2,-0.24 -0.14,-0.22 -0.04,-0.34 0.26,-0.34 0.25,0 0.67,0.26 1.26,0.77 0.45,0.39 0.55,0.55 0.35,0.54 -0.08,-0.01 -0.24,-0.05 -0.37,-0.1zm4.93 12.98c-0.24,0.06 -0.93,0.06 -3.66,0.06 -1.89,0 -2.87,0 -3.39,-0.03 0.54,0.02 1.63,0.03 3.38,0.03 2.73,0 3.43,0 3.67,-0.06zm21.61 -2.75c0.22,0.05 1.25,0.06 1.71,0.02 -0.18,0.02 -0.43,0.03 -0.74,0.03 -0.59,0 -0.93,0 -1.12,-0.09 0.04,0.01 0.09,0.03 0.15,0.04zm-19.98 2.71c0.13,0.09 0.28,0.1 1.17,0.1l-1.07 0 -0.1 -0.1zm-1.63 -6.3c0.01,0.51 0.04,0.63 0.24,0.74 -0.11,-0.04 -0.17,-0.1 -0.2,-0.18 -0.03,-0.07 -0.04,-0.31 -0.04,-0.56zm-7.5 6.3c-0.13,-0.04 -0.15,-0.09 -0.18,-0.17 -0.02,-0.03 -0.03,-0.13 -0.03,-0.27 0.02,0.26 0.07,0.36 0.21,0.44zm19.43 -2.72c-0.16,0.02 -0.37,0.03 -0.65,0.03 0.2,-0.01 0.43,-0.03 0.57,-0.03 0.03,0 0.05,0 0.08,0zm7.68 0.03c-0.2,0.03 -0.5,0.04 -0.93,0.03 0.36,0 0.72,-0.01 0.93,-0.03zm-7.31 -1.66c0.09,0.09 0.1,0.2 0.1,0.74 0,0.03 0,0.06 0,0.09 0,0.31 0,0.5 -0.07,0.62 0.06,-0.12 0.07,-0.34 0.07,-0.69 0,-0.52 -0.02,-0.67 -0.1,-0.75 0,0 0,-0.01 0,-0.01zm11.44 1.55c0.14,-0.1 0.16,-0.28 0.16,-0.78 0,-0.09 0,-0.17 0,-0.24 0.02,0.38 0,0.85 -0.08,0.95 -0.02,0.02 -0.05,0.05 -0.08,0.07zm-6.09 0.05c-0.15,-0.05 -0.23,-0.13 -0.26,-0.27 0.04,0.12 0.13,0.21 0.26,0.27zm-1.48 -0.14c-0.03,0.05 -0.08,0.08 -0.18,0.13 -0.15,0.08 -0.27,0.1 -0.79,0.1 0.48,0 0.64,-0.03 0.79,-0.1 0.1,-0.05 0.15,-0.08 0.18,-0.13zm-15.59 -2.61c0.2,0.02 0.5,0.03 0.85,0.03 0.65,0 0.9,0 1.02,-0.04 -0.12,0.04 -0.36,0.04 -1.01,0.04 -0.38,0 -0.66,-0.01 -0.86,-0.03zm-0.45 -1.62c-0.04,0.06 -0.08,0.14 -0.1,0.24 0.01,-0.07 0.02,-0.13 0.04,-0.15 0.01,-0.03 0.04,-0.06 0.06,-0.09zm6.46 0.9c0.01,0.49 -0.01,0.51 -0.15,0.62 0.13,-0.11 0.15,-0.14 0.15,-0.62zm15.99 0.57c0.03,0.04 0.06,0.07 0.09,0.09 -0.02,-0.02 -0.05,-0.03 -0.07,-0.06 -0.06,-0.05 -0.1,-0.09 -0.13,-0.14 0.03,0.03 0.06,0.07 0.11,0.11zm-20.26 3.95c-0.51,0.01 -0.6,0.03 -0.72,0.12 0.13,-0.09 0.2,-0.12 0.72,-0.12zm3.09 -2.62c0.12,-0.12 0.18,-0.13 0.85,-0.13 -0.65,0 -0.72,0.01 -0.85,0.13 0,0 0,0 0,0zm-5.11 3.06c-0.02,-0.12 -0.06,-0.23 -0.13,-0.3 0.08,0.08 0.11,0.16 0.13,0.3zm3.6 -4.7c0.01,0.23 0.04,0.27 0.15,0.36 -0.12,-0.09 -0.15,-0.12 -0.15,-0.36zm0.29 5.34c0,0.19 -0.03,0.34 -0.08,0.46 0.05,-0.12 0.07,-0.27 0.08,-0.46zm-2.29 -3.83c-0.14,0.01 -0.26,0.05 -0.33,0.11 0.08,-0.07 0.18,-0.11 0.33,-0.11zm10.3 4.46c0.01,-0.01 0.03,-0.02 0.04,-0.03 0.04,-0.04 0.07,-0.06 0.1,-0.09 -0.03,0.05 -0.08,0.09 -0.14,0.12zm18.59 -9.8c-0.08,-0.1 -0.17,-0.19 -0.26,-0.26 0.05,0.03 0.09,0.07 0.13,0.11 0.04,0.03 0.08,0.09 0.13,0.15zm-27.23 7.1l0.35 0 0 0 -0.35 0zm23.36 -2.78c0.48,-0.01 0.54,-0.03 0.67,-0.14 -0.13,0.11 -0.18,0.14 -0.67,0.14zm2.61 -3.23l-0.33 0 0.33 0 0 0zm-13.33 8.57c-0.02,0.05 -0.05,0.09 -0.1,0.12 0.01,0 0.01,-0.01 0.01,-0.01 0.04,-0.03 0.07,-0.07 0.09,-0.11zm-10.51 -2.58c-0.06,-0.02 -0.11,-0.03 -0.15,-0.06 0.04,0.02 0.09,0.04 0.15,0.06zm-14.79 -5.99l-0.42 0 0 0 0.42 0zm30.4 4.37c-0.08,0.11 -0.1,0.34 -0.1,0.76 0,-0.42 0.02,-0.65 0.1,-0.76zm6.39 -2.75c0.07,0.11 0.07,0.29 0.07,0.56 0,0.04 0,0.07 0,0.11 0,-0.03 0,-0.07 0,-0.1 0,-0.28 0,-0.46 -0.07,-0.57zm-35.41 6.25l0 -0.01c0,-0.37 0,-0.5 0.06,-0.6 -0.06,0.1 -0.06,0.23 -0.06,0.61zm9.47 -1.92c0.03,0.01 0.05,0.02 0.09,0.03 -0.04,-0.01 -0.07,-0.02 -0.09,-0.03zm24.94 -4.52c-0.09,0 -0.18,0 -0.29,0 -0.06,0 -0.13,0 -0.2,0 0.06,0 0.12,0 0.17,0l0 0c0.12,0 0.22,0 0.32,0zm-24.18 0.06c0.03,0.02 0.06,0.05 0.1,0.09 -0.04,-0.04 -0.07,-0.07 -0.1,-0.09zm13.72 0.68c0,0.01 0,0.02 0,0.03 0,0.02 0,0.03 0,0.05 0,-0.03 0,-0.06 0,-0.08z"/>
  <path class="fil3" d="M4.51 45.56c-0.46,-0.11 -0.9,-0.48 -1.17,-0.98l-0.14 -0.25 -0.01 -7.27c-0.02,-8.19 -0.04,-7.69 0.42,-8.2 0.14,-0.15 0.39,-0.33 0.55,-0.41l0.3 -0.14 3 0 3.01 0 0.03 0.17c0.06,0.31 0.61,0.82 1.31,1.23 0.16,0.09 0.27,0.19 0.25,0.22 -0.01,0.03 -1.54,0.06 -3.62,0.06l-3.59 0 0 6.94 0 6.95 19.53 0 19.52 0 0 -6.95 0 -6.94 -1.15 0c-0.99,0 -1.14,-0.02 -1.06,-0.09 0.04,-0.04 0.39,-0.29 0.77,-0.55 0.38,-0.25 0.87,-0.59 1.09,-0.75 0.45,-0.33 0.6,-0.35 1.01,-0.17 0.35,0.16 0.63,0.43 0.83,0.81l0.16 0.3 0 7.39 0 7.4 -0.14 0.27c-0.19,0.36 -0.46,0.64 -0.82,0.83l-0.3 0.16 -19.79 0.01c-10.89,0 -19.88,-0.02 -19.99,-0.04zm2.31 -3.47l-0.17 -0.18 0 -0.89c0,-1.25 -0.09,-1.18 1.34,-1.2l1.11 -0.02 0.15 0.15c0.15,0.15 0.15,0.17 0.15,1.06l0 0.9 -0.17 0.18 -0.18 0.17 -1.02 0 -1.03 0 -0.18 -0.17zm3.92 0.05l-0.2 -0.12 0 -0.98c0,-1.32 -0.09,-1.23 1.33,-1.23 1.03,0 1.06,0 1.23,0.14l0.17 0.15 0 0.93 0 0.94 -0.17 0.15c-0.16,0.14 -0.2,0.14 -1.17,0.14 -0.89,0 -1.02,-0.01 -1.19,-0.12zm3.99 0.08c-0.05,-0.02 -0.15,-0.09 -0.22,-0.16 -0.13,-0.11 -0.14,-0.16 -0.14,-1.04 0,-0.9 0.01,-0.92 0.15,-1.07l0.15 -0.14 2.72 0 2.73 0 -0.12 0.25c-0.2,0.45 -0.11,0.76 0.2,0.68 0.22,-0.05 0.67,-0.43 0.81,-0.69l0.14 -0.24 1.94 0c1.8,0 1.95,0 1.98,0.1 0.25,0.8 0.52,1.25 0.88,1.43 0.17,0.09 0.19,0.09 0.27,-0.01 0.13,-0.18 0.06,-0.75 -0.15,-1.17l-0.18 -0.35 4.1 0 4.09 0 0.15 0.14c0.14,0.15 0.15,0.18 0.15,1.05 0,0.49 -0.02,0.94 -0.04,0.99 -0.11,0.28 0.26,0.27 -9.95,0.27 -5.26,0 -9.61,-0.02 -9.66,-0.04zm20.98 -0.08l-0.2 -0.12 0 -0.98 0 -0.98 0.16 -0.13c0.15,-0.11 0.24,-0.12 1.2,-0.12 0.56,0 1.07,0.01 1.13,0.03 0.21,0.09 0.27,0.35 0.27,1.23l0 0.84 -0.18 0.18 -0.17 0.17 -1.01 0c-0.9,0 -1.03,-0.01 -1.2,-0.12zm3.92 0.03c-0.24,-0.14 -0.28,-0.3 -0.28,-1.22 0,-1.17 -0.08,-1.11 1.33,-1.13 1.04,-0.02 1.11,-0.01 1.26,0.11l0.16 0.13 0 0.94c0,1.31 0.08,1.23 -1.26,1.25 -0.85,0.01 -1.07,-0.01 -1.21,-0.08zm-32.71 -3.45c-0.24,-0.13 -0.27,-0.24 -0.27,-0.84 0,-0.55 0.01,-0.6 0.15,-0.74l0.14 -0.15 3.74 0 3.73 0 0.13 0.14c0.18,0.19 0.19,0.75 0.01,0.91 -0.14,0.13 -0.15,0.25 -0.01,0.41 0.1,0.11 0.1,0.12 -0.04,0.23 -0.13,0.1 -0.29,0.11 -3.8,0.11 -2.54,0 -3.7,-0.02 -3.78,-0.07zm9.05 -0.05c-0.09,-0.07 -0.16,-0.15 -0.16,-0.18 0,-0.02 0.17,-0.09 0.38,-0.15 0.41,-0.11 0.83,-0.25 1.63,-0.55 0.74,-0.28 0.75,-0.27 0.75,0.15 0,0.42 -0.09,0.71 -0.25,0.79 -0.06,0.03 -0.57,0.06 -1.15,0.06 -0.96,0 -1.05,-0.01 -1.2,-0.12zm3.82 -0.03c-0.14,-0.13 -0.15,-0.19 -0.15,-0.75 0,-0.56 0.01,-0.61 0.15,-0.75 0.15,-0.15 0.16,-0.15 1.22,-0.15 1.41,0 1.36,-0.03 1.36,0.9 0,0.63 -0.01,0.68 -0.14,0.78 -0.15,0.13 -0.43,0.16 -0.43,0.05 0,-0.03 0.03,-0.11 0.06,-0.17 0.13,-0.24 0.29,-0.72 0.25,-0.72 -0.03,0 -0.28,0.22 -0.56,0.48l-0.52 0.48 -0.54 0c-0.51,0 -0.56,-0.01 -0.7,-0.15zm4.47 0.03c-0.14,-0.11 -0.16,-0.15 -0.17,-0.74 -0.02,-0.61 -0.02,-0.64 0.13,-0.79 0.15,-0.15 0.15,-0.15 1.22,-0.15 1.01,0 1.08,0.01 1.2,0.13 0.17,0.15 0.12,0.22 -0.17,0.24l-0.21 0.03 0.26 0.08 0.25 0.08 0 0.5c0,0.46 -0.01,0.5 -0.16,0.62 -0.14,0.11 -0.22,0.12 -0.79,0.11l-0.63 -0.02 -0.23 -0.3c-0.28,-0.38 -0.38,-0.42 -0.33,-0.14 0.02,0.11 0.06,0.26 0.08,0.33 0.03,0.12 0.02,0.14 -0.13,0.14 -0.1,0 -0.24,-0.06 -0.32,-0.12zm3.81 0c-0.14,-0.11 -0.16,-0.18 -0.16,-0.42 0,-0.2 0.02,-0.3 0.07,-0.3 0.05,0 0.46,0.11 0.92,0.25 0.88,0.25 1.11,0.29 1.48,0.21 0.18,-0.04 0.22,-0.03 0.22,0.05 0,0.05 -0.05,0.14 -0.12,0.21 -0.11,0.11 -0.2,0.12 -1.19,0.12 -0.99,0 -1.08,-0.01 -1.22,-0.12zm3.83 -0.02c-0.15,-0.12 -0.16,-0.17 -0.17,-0.78 -0.02,-0.91 -0.06,-0.88 1.33,-0.88 0.98,0 1.07,0.01 1.22,0.13 0.15,0.12 0.16,0.14 0.16,0.75 0,0.58 -0.01,0.63 -0.15,0.77 -0.14,0.15 -0.16,0.15 -1.19,0.15 -1.01,0 -1.06,-0.01 -1.2,-0.14zm3.94 0.07c-0.23,-0.13 -0.27,-0.23 -0.27,-0.89 0,-0.62 0.01,-0.65 0.15,-0.74 0.13,-0.09 0.49,-0.1 3.15,-0.1 3.58,0 3.23,-0.09 3.23,0.9 0,0.99 0.31,0.9 -3.22,0.9 -2,0 -2.95,-0.03 -3.04,-0.07zm-5.48 -1.02c-0.32,-0.17 -0.95,-0.29 -1.72,-0.33 -0.37,-0.02 -0.69,-0.06 -0.7,-0.08 -0.02,-0.03 0.04,-0.1 0.13,-0.17 0.14,-0.12 0.23,-0.13 1.21,-0.13 1.03,0 1.07,0.01 1.19,0.14 0.13,0.14 0.26,0.71 0.16,0.69 -0.03,0 -0.15,-0.06 -0.27,-0.12zm-14.55 -0.34c0,-0.06 0.07,-0.18 0.16,-0.24 0.14,-0.12 0.24,-0.13 1.03,-0.13 0.48,0 0.85,0.02 0.83,0.04 -0.02,0.02 -0.43,0.11 -0.92,0.2 -0.49,0.1 -0.94,0.19 -0.99,0.21 -0.08,0.03 -0.11,0.01 -0.11,-0.08zm0.43 -1.38c-0.38,-0.1 -0.43,-0.19 -0.43,-0.88 0,-0.54 0.02,-0.64 0.12,-0.74 0.17,-0.17 0.67,-0.17 1.06,0.01 0.16,0.07 0.57,0.21 0.92,0.31l0.63 0.19 0.01 0.4c0.02,0.34 0,0.41 -0.12,0.56l-0.15 0.17 -0.92 0.01c-0.51,0.01 -1.01,0 -1.12,-0.03zm3.84 0c-0.33,-0.08 -0.44,-0.22 -0.44,-0.55 0,-0.16 0.01,-0.29 0.02,-0.29 0.01,0 0.1,0.02 0.21,0.05 0.28,0.08 0.29,-0.01 0.01,-0.2 -0.28,-0.2 -0.31,-0.42 -0.1,-0.62 0.13,-0.12 0.2,-0.13 0.87,-0.13l0.72 0 -0.06 0.22c-0.1,0.36 -0.03,0.93 0.16,1.24l0.16 0.27 -0.24 0c-0.13,0 -0.43,0.02 -0.67,0.03 -0.25,0.02 -0.54,0.01 -0.64,-0.02zm5.01 0.03c0,-0.03 0.16,-0.23 0.35,-0.45 0.19,-0.22 0.46,-0.61 0.61,-0.86 0.29,-0.49 0.43,-0.57 0.62,-0.35 0.08,0.08 0.1,0.23 0.1,0.75 0,0.78 -0.06,0.87 -0.55,0.87 -0.18,0 -0.5,0.02 -0.72,0.04 -0.22,0.02 -0.41,0.02 -0.41,0zm3.33 -0.02c-0.23,-0.03 -0.36,-0.07 -0.32,-0.11 0.01,-0.01 0.42,-0.13 0.89,-0.26 0.48,-0.14 1,-0.28 1.17,-0.33 0.45,-0.14 0.45,-0.14 0.43,0.22 -0.01,0.29 -0.03,0.32 -0.23,0.42 -0.17,0.08 -0.35,0.1 -0.98,0.1 -0.43,-0.01 -0.86,-0.02 -0.96,-0.04zm3.73 -0.01c-0.25,-0.06 -0.41,-0.22 -0.42,-0.44 -0.01,-0.49 0.02,-0.87 0.11,-1.08l0.1 -0.22 0.9 0c0.52,0 1.05,0.04 1.24,0.08l0.33 0.08 0.01 0.62c0.02,0.7 -0.03,0.86 -0.3,0.95 -0.19,0.07 -1.7,0.08 -1.97,0.01zm3.83 0c-0.36,-0.08 -0.41,-0.18 -0.41,-0.86 0,-0.8 0.06,-0.88 0.53,-0.88l0.34 0 -0.27 0.23c-0.14,0.13 -0.25,0.25 -0.23,0.27 0.02,0.02 0.43,-0.08 0.91,-0.23 0.48,-0.15 0.95,-0.27 1.05,-0.27 0.3,0 0.37,0.17 0.37,0.87 0,0.69 -0.04,0.79 -0.39,0.87 -0.26,0.06 -1.64,0.06 -1.9,0zm4.01 0c-0.54,-0.06 -0.58,-0.12 -0.58,-0.89 0,-0.9 -0.08,-0.85 1.36,-0.85 1.41,0 1.33,-0.05 1.33,0.88 0,0.55 -0.01,0.67 -0.1,0.75 -0.12,0.1 -1.41,0.18 -2.01,0.11zm-33.19 -0.15c-0.14,-0.14 -0.15,-0.19 -0.15,-0.75 0,-0.91 -0.16,-0.84 2.09,-0.84l1.85 0 0.13 0.15c0.1,0.14 0.12,0.25 0.12,0.73 0,0.52 -0.01,0.57 -0.15,0.71l-0.14 0.14 -1.81 0 -1.8 0 -0.14 -0.14zm5.29 0.03c-0.13,-0.11 -0.14,-0.16 -0.14,-0.74 0,-0.92 -0.06,-0.88 1.38,-0.88 1.42,0 1.34,-0.05 1.34,0.84 0,0.92 0.04,0.89 -1.36,0.89 -0.97,0 -1.09,-0.01 -1.22,-0.11zm15.81 -0.35c0,-0.06 0,-0.32 0.01,-0.58 0.01,-0.72 -0.03,-0.69 1.31,-0.69l1.11 0 -0.24 0.13c-0.22,0.11 -1.56,0.88 -1.99,1.14 -0.18,0.11 -0.19,0.11 -0.2,0zm-5.12 -0.04c-0.1,-0.04 -0.24,-0.16 -0.32,-0.25 -0.19,-0.25 -0.14,-0.54 0.29,-1.69 0.21,-0.54 0.47,-1.3 0.58,-1.68 0.14,-0.47 0.42,-1.12 0.86,-2.01 0.36,-0.73 0.84,-1.74 1.08,-2.25 0.42,-0.92 0.44,-0.95 1.58,-2.37 1.21,-1.5 1.75,-2.23 2.06,-2.78 0.29,-0.51 0.71,-1.86 0.57,-1.86 -0.02,0.01 -0.27,0.3 -0.54,0.65 -0.27,0.35 -0.55,0.7 -0.61,0.78 -0.06,0.07 -0.37,0.24 -0.67,0.38 -0.82,0.35 -2.7,1.27 -3.09,1.51 -0.32,0.19 -0.41,0.3 -1,1.22 -0.36,0.55 -0.84,1.25 -1.06,1.55 -0.5,0.68 -0.49,0.65 -0.81,1.6 -0.66,1.95 -1.31,2.76 -2.26,2.84 -0.41,0.03 -0.7,-0.07 -0.82,-0.3 -0.12,-0.21 -0.02,-0.8 0.29,-1.81 0.17,-0.53 0.4,-1.34 0.52,-1.8 0.16,-0.56 0.32,-1.01 0.51,-1.38 0.55,-1.06 2.01,-3.62 2.29,-4.03 0.15,-0.21 1.06,-0.84 1.61,-1.12 1.4,-0.7 3.29,-1.85 3.74,-2.26 0.33,-0.3 0.87,-0.92 1.02,-1.17 0.08,-0.14 -0.15,-0.04 -1,0.45 -0.44,0.25 -1.7,0.9 -2.81,1.45 -2.73,1.36 -3.12,1.64 -3.73,2.67 -0.11,0.2 -0.35,0.5 -0.53,0.67 -0.17,0.16 -0.63,0.62 -1.01,1 -0.75,0.78 -1.05,1.01 -1.55,1.22 -0.64,0.26 -1.44,0.12 -1.65,-0.29 -0.18,-0.34 -0.1,-0.5 0.68,-1.43 0.61,-0.72 1.13,-1.38 1.41,-1.75 0.1,-0.13 0.44,-0.46 0.78,-0.75 0.33,-0.29 0.77,-0.67 0.97,-0.85 1.25,-1.15 1.52,-1.38 1.89,-1.64 0.23,-0.15 0.54,-0.32 0.7,-0.37 0.15,-0.05 1.04,-0.34 1.97,-0.66 1.81,-0.6 2.63,-0.98 3.41,-1.55 0.61,-0.45 0.55,-0.44 -1.24,0.11 -0.25,0.08 -0.62,0.17 -0.82,0.21 -0.49,0.09 -3.06,0.79 -3.55,0.97 -0.41,0.15 -0.97,0.46 -1.44,0.79 -0.39,0.27 -1.52,0.61 -2.03,0.61 -0.5,0 -0.88,-0.18 -1.11,-0.51 -0.14,-0.19 -0.16,-0.28 -0.13,-0.46 0.02,-0.11 0.06,-0.25 0.1,-0.3 0.1,-0.11 0.75,-0.42 1.79,-0.83 0.48,-0.19 1.37,-0.57 1.99,-0.84 2.08,-0.93 2.47,-1.04 4.64,-1.31 1.39,-0.18 1.34,-0.17 1.21,-0.08 -0.21,0.16 -0.6,0.54 -0.58,0.56 0.03,0.02 1.2,-0.44 1.89,-0.75 0.25,-0.1 0.72,-0.24 1.08,-0.31 1.28,-0.23 4.98,-0.83 5.91,-0.95 1.15,-0.15 2.21,-0.33 2.7,-0.46 0.52,-0.14 1.6,-0.59 2.16,-0.89 0.27,-0.15 0.52,-0.27 0.56,-0.27 0.04,0 0.26,0.4 0.49,0.88 0.23,0.48 0.42,0.89 0.43,0.9 0.01,0.01 0.28,-0.12 0.59,-0.29 2.07,-1.13 6.45,-3.2 6.55,-3.1 0.1,0.1 -2.71,1.95 -5.44,3.57 -0.68,0.41 -1.24,0.75 -1.24,0.76 0,0.05 0.49,1.08 0.54,1.15 0.04,0.04 0.46,-0.14 1.42,-0.62 1.2,-0.61 2.27,-1.09 2.39,-1.09 0.21,0 -1.17,1 -2.99,2.18 -0.19,0.13 -0.36,0.26 -0.38,0.3 -0.01,0.04 0.09,0.32 0.24,0.63 0.59,1.27 0.72,1.56 0.69,1.58 -0.01,0.01 -0.2,0.13 -0.41,0.28 -0.37,0.24 -1.35,0.99 -1.8,1.37 -0.11,0.1 -0.19,0.19 -0.17,0.22 0.06,0.05 0.97,-0.32 1.96,-0.79l0.8 -0.38 0.29 0.62c0.16,0.35 0.3,0.65 0.3,0.68 0,0.02 -0.2,0.16 -0.44,0.31 -0.86,0.52 -1.8,1.38 -2.26,2.04 -0.29,0.42 -0.51,0.87 -0.9,1.8 -0.89,2.14 -1.36,2.83 -2.66,3.97 -0.4,0.34 -0.92,0.85 -1.17,1.12 -0.25,0.28 -0.7,0.77 -1.01,1.1 -0.74,0.8 -1.42,1.65 -1.98,2.49 -0.6,0.89 -0.64,0.93 -0.94,0.84 -0.42,-0.13 -0.7,-0.36 -0.92,-0.8 -0.17,-0.34 -0.21,-0.48 -0.23,-0.9 -0.01,-0.27 0.01,-0.69 0.05,-0.92 0.1,-0.63 0.58,-1.55 1.14,-2.23 0.36,-0.44 1.19,-1.66 1.38,-2.05 0.23,-0.45 0.35,-0.89 0.35,-1.29 0,-0.3 0.01,-0.31 0.38,-0.6 0.49,-0.39 1.29,-1.14 1.37,-1.29 0.06,-0.11 0.05,-0.11 -0.11,-0.08 -0.09,0.03 -0.61,0.26 -1.15,0.52l-0.98 0.48 -0.3 -0.09c-0.39,-0.12 -0.98,-0.12 -1.3,-0.01 -0.13,0.05 -0.71,0.32 -1.28,0.6l-1.04 0.5 -0.62 0.65c-0.35,0.36 -1.13,1.16 -1.74,1.79 -1.05,1.07 -1.13,1.17 -1.46,1.8 -0.19,0.36 -0.59,1.06 -0.89,1.55 -0.3,0.5 -0.67,1.18 -0.82,1.53 -0.76,1.71 -0.95,2.05 -1.46,2.57 -0.39,0.41 -0.79,0.6 -1.23,0.6 -0.18,0 -0.42,-0.04 -0.52,-0.08zm8.25 -14.5c0.04,-0.06 0.35,-0.29 0.68,-0.52 0.89,-0.63 1.42,-1.04 1.62,-1.24l0.17 -0.19 -0.2 0.04c-0.45,0.09 -1.44,0.58 -1.76,0.87 -0.29,0.26 -0.57,0.68 -0.66,1 -0.05,0.15 0.03,0.18 0.15,0.04zm0.47 -4.07c1.31,-0.53 3.15,-1.58 3.48,-1.98 0.08,-0.1 0.07,-0.1 -0.17,-0.06 -0.86,0.13 -3.08,1.28 -4.04,2.08 -0.51,0.43 -0.38,0.42 0.73,-0.04zm-24.59 16.26c-0.21,-0.09 -0.26,-0.25 -0.26,-0.87 0,-0.53 0.01,-0.58 0.15,-0.72 0.14,-0.15 0.16,-0.15 1.23,-0.15 1.07,0 1.08,0 1.23,0.15 0.13,0.14 0.14,0.19 0.14,0.74 0,0.9 0.04,0.88 -1.29,0.89 -0.59,0.01 -1.13,-0.01 -1.2,-0.04zm3.79 -0.06c-0.15,-0.12 -0.16,-0.15 -0.16,-0.78 0,-0.63 0.01,-0.65 0.16,-0.77 0.15,-0.12 0.24,-0.13 1.22,-0.13 1.37,0 1.34,-0.02 1.37,0.83 0.02,0.61 0.02,0.61 -0.16,0.79l-0.18 0.18 -1.05 0c-0.96,0 -1.06,-0.01 -1.2,-0.12zm3.94 0.05c-0.23,-0.13 -0.27,-0.24 -0.27,-0.83 0,-0.67 0.07,-0.82 0.43,-0.88 0.16,-0.02 0.33,0.02 0.66,0.16 0.55,0.23 0.6,0.23 0.38,0l-0.17 -0.18 0.58 0c0.54,0 0.6,0.01 0.73,0.15 0.14,0.14 0.15,0.19 0.15,0.75 0,0.56 -0.01,0.62 -0.15,0.75 -0.14,0.15 -0.16,0.15 -1.18,0.15 -0.63,0 -1.08,-0.03 -1.16,-0.07zm3.78 -0.05c-0.14,-0.12 -0.15,-0.16 -0.15,-0.64 0,-0.46 0.01,-0.51 0.1,-0.47 0.47,0.19 0.65,0.23 1.07,0.19 0.48,-0.03 0.89,-0.16 1.22,-0.38 0.12,-0.08 0.23,-0.14 0.26,-0.14 0.02,0 0.04,0.3 0.04,0.66 0,0.63 0,0.65 -0.16,0.78 -0.14,0.11 -0.23,0.12 -1.19,0.12 -0.95,0 -1.04,-0.01 -1.19,-0.12zm9.68 0l-0.19 -0.12 0 -0.65c0,-0.91 -0.06,-0.87 1.37,-0.9 1.38,-0.02 1.32,-0.06 1.32,0.87 0,0.58 -0.01,0.63 -0.14,0.77 -0.14,0.14 -0.2,0.15 -0.66,0.15 -0.28,0 -0.51,-0.02 -0.51,-0.03 0,-0.02 0.12,-0.18 0.28,-0.36 0.28,-0.32 0.77,-1.18 0.68,-1.21 -0.06,-0.02 -1.31,0.72 -1.44,0.86 -0.08,0.08 -0.08,0.1 0.05,0.2l0.15 0.11 -0.12 0.2c-0.1,0.17 -0.16,0.2 -0.36,0.22 -0.15,0.01 -0.3,-0.03 -0.43,-0.11zm8.85 -0.06c-0.17,-0.16 -0.18,-0.2 -0.18,-0.63 0,-0.49 0.09,-0.74 0.32,-0.89 0.1,-0.07 0.29,-0.1 0.78,-0.1l0.65 0 -0.17 0.21c-0.08,0.12 -0.14,0.23 -0.13,0.24 0.02,0.02 0.27,-0.07 0.56,-0.21l0.52 -0.24 1.27 0c1.63,0 1.56,-0.04 1.56,0.87 0,0.63 0,0.64 -0.17,0.78 -0.16,0.14 -0.2,0.15 -1.03,0.15 -0.52,0 -0.86,-0.02 -0.86,-0.06 0,-0.03 0.08,-0.12 0.18,-0.19 0.1,-0.08 0.23,-0.21 0.27,-0.3l0.09 -0.17 -0.35 0c-0.43,0 -0.81,0.11 -1.59,0.46 -0.54,0.24 -0.64,0.26 -1.07,0.26 -0.45,0 -0.49,-0.01 -0.65,-0.18zm-23.89 -3.6c-0.45,-0.3 -1.08,-0.67 -1.41,-0.83l-0.6 -0.3 1.27 0 1.28 0 0.85 0.84 0.85 0.84 -0.72 -0.01 -0.71 0 -0.81 -0.54zm2.5 0.26c-0.52,-0.69 -0.83,-1.23 -0.75,-1.31 0.01,-0.01 0.35,-0.04 0.74,-0.06l0.71 -0.04 0.14 0.28c0.08,0.15 0.17,0.28 0.19,0.28 0.05,0 0.12,-0.22 0.12,-0.41 0,-0.13 0.02,-0.13 0.65,-0.13l0.65 0 -0.21 0.7c-0.11,0.39 -0.22,0.77 -0.23,0.84 -0.03,0.13 -0.05,0.14 -0.91,0.14l-0.88 0 -0.22 -0.29zm6.66 0.26c0,-0.02 0.16,-0.47 0.46,-1.25l0.15 -0.4 0.47 0 0.48 0 -0.42 0.84 -0.42 0.84 -0.36 0c-0.2,0 -0.36,-0.01 -0.36,-0.03zm6.5 -0.32c0.11,-0.24 0.3,-0.49 0.64,-0.84l0.49 -0.49 1.52 0c0.83,0 1.51,0.01 1.51,0.02 0,0.02 -0.09,0.19 -0.21,0.39 -0.19,0.34 -0.45,0.91 -0.53,1.16 -0.03,0.1 -0.17,0.11 -1.8,0.11l-1.77 0 0.15 -0.35zm9.8 0.29c0.05,-0.14 0.84,-0.96 1.23,-1.27l0.43 -0.35 1.15 0 1.15 0 -0.75 0.52c-0.4,0.28 -0.93,0.66 -1.17,0.84l-0.43 0.32 -0.82 0c-0.45,0 -0.8,-0.03 -0.79,-0.06z"/>
 </g>
</svg>
